# xmcd
#
# Track frame offsets: 
#        150
#        10515
#        12225
#        25441
#        25755
#        26549
#        35576
#        48189
#        49540
#        60061
#        62015
#        70725
#        71110
#        71420
#        79789
#        81127
#        93631
#        94243
#        95747
#        106406
#        106719
#        107964
#        119682
#        120195
#        123868
#        135653
#        145475
#        153666
#
# Disc length: 2199 seconds
#
# Revision: 0
# Processed by: cddbd v1.5.2PL0 Copyright (c) Steve Scherf et al.
# Submitted via: ExactAudioCopy v0.95b3
#
DISCID=7208951c
DTITLE=The Beatles  - Way Beyond Compare - Episode 25 Pop Go The Beatl
DTITLE=es 10 and Easy Beat (16-17 July 1963)  FLAC
DYEAR=1900
DGENRE=
TTITLE0=She Loves You [BBC-Radio]
TTITLE1=She Loves You [BBC-Radio]
TTITLE2=You Really Got A Hold On Me [BBC-Radio]
TTITLE3=Didn't Hurt A Bit, Did It...__ [BBC-Radio]
TTITLE4=Add This One To Your Collection..._ [BBC-Radio]
TTITLE5=I'll Get You [BBC-Radio]
TTITLE6=I Got A Woman [BBC-Radio]
TTITLE7=A Crafty Long Quickie..._ [BBC-Radio]
TTITLE8=She Loves You
TTITLE9='You'd Never Hear The Songs...'
TTITLE10=Words of Love
TTITLE11='They Can All Take Five Now...'
TTITLE12='Beautifuly Sung...'
TTITLE13=Glad All Over
TTITLE14='the three Beatlettes...'
TTITLE15=I Just Don't Understand
TTITLE16='Well, You Ought To...'
TTITLE17='This Is Ear Catching...'
TTITLE18=Devil in Her Heart
TTITLE19='thanks, George...'
TTITLE20='postcards to the Beatles...'
TTITLE21=Slow Down
TTITLE22='and a dead stop, I'm afraid...'
TTITLE23=bb Side By Side (edit)
TTITLE24=01 I Saw Her Standing There
TTITLE25=02 A Shot Of Rhythm And Blues
TTITLE26=03 There's A Place
TTITLE27=04 Twist And Shout
EXTD=
EXTT0=
EXTT1=
EXTT2=
EXTT3=
EXTT4=
EXTT5=
EXTT6=
EXTT7=
EXTT8=
EXTT9=
EXTT10=
EXTT11=
EXTT12=
EXTT13=
EXTT14=
EXTT15=
EXTT16=
EXTT17=
EXTT18=
EXTT19=
EXTT20=
EXTT21=
EXTT22=
EXTT23=
EXTT24=
EXTT25=
EXTT26=
EXTT27=
PLAYORDER=
